<svg width="260" height="49" viewBox="0 0 260 49" fill="none" xmlns="http://www.w3.org/2000/svg">
<g filter="url(#filter0_bii_412_47)">
<rect width="260" height="49" fill="#C4C4C4" fill-opacity="0.1"/>
</g>
<path d="M9.59375 10.9961C9.59375 10.4492 9.69792 9.9349 9.90625 9.45312C10.1146 8.95833 10.401 8.53516 10.7656 8.18359C11.1302 7.81901 11.5534 7.53255 12.0352 7.32422C12.5299 7.10286 13.0508 6.99219 13.5977 6.99219H28.793C29.3398 6.99219 29.8542 7.10286 30.3359 7.32422C30.8307 7.53255 31.2604 7.81901 31.625 8.18359C31.9896 8.53516 32.276 8.95833 32.4844 9.45312C32.6927 9.9349 32.7969 10.4492 32.7969 10.9961V14.6094H28.793V10.9961H13.5977V30.9961H28.793V27.4023H32.7969V30.9961C32.7969 31.543 32.6927 32.0638 32.4844 32.5586C32.276 33.0404 31.9896 33.4635 31.625 33.8281C31.2604 34.1927 30.8307 34.4792 30.3359 34.6875C29.8542 34.8958 29.3398 35 28.793 35H13.5977C13.0508 35 12.5299 34.8958 12.0352 34.6875C11.5534 34.4792 11.1302 34.1927 10.7656 33.8281C10.401 33.4635 10.1146 33.0404 9.90625 32.5586C9.69792 32.0638 9.59375 31.543 9.59375 30.9961V10.9961ZM56.8008 31.1523C56.8008 31.6862 56.6966 32.1875 56.4883 32.6562C56.293 33.125 56.0195 33.5352 55.668 33.8867C55.3294 34.2253 54.9258 34.4987 54.457 34.707C54.0013 34.9023 53.5065 35 52.9727 35H42.6406C42.1198 35 41.625 34.9023 41.1562 34.707C40.6875 34.4987 40.2773 34.2253 39.9258 33.8867C39.5872 33.5352 39.3138 33.125 39.1055 32.6562C38.9102 32.1875 38.8125 31.6862 38.8125 31.1523V18.0469C38.8125 17.513 38.9102 17.0117 39.1055 16.543C39.3138 16.0742 39.5872 15.6706 39.9258 15.332C40.2773 14.9805 40.6875 14.707 41.1562 14.5117C41.625 14.3034 42.1198 14.1992 42.6406 14.1992H52.9727C53.5065 14.1992 54.0013 14.3034 54.457 14.5117C54.9258 14.707 55.3294 14.9805 55.668 15.332C56.0195 15.6706 56.293 16.0742 56.4883 16.543C56.6966 17.0117 56.8008 17.513 56.8008 18.0469V31.1523ZM42.6406 18.0469V31.1523H52.9727V18.0469H42.6406ZM63.2266 14.1992H67.0547V31.1523H77.7773V14.1992H81.625V35H77.7773V31.4844C77.7383 31.9661 77.6081 32.4219 77.3867 32.8516C77.1654 33.2812 76.8789 33.6589 76.5273 33.9844C76.1888 34.2969 75.7982 34.5443 75.3555 34.7266C74.9128 34.9089 74.444 35 73.9492 35H67.0547C66.5339 35 66.0391 34.9023 65.5703 34.707C65.1016 34.4987 64.6914 34.2253 64.3398 33.8867C64.0013 33.5352 63.7279 33.125 63.5195 32.6562C63.3242 32.1875 63.2266 31.6862 63.2266 31.1523V14.1992ZM106.43 35H102.582V18.0469H91.8594V35H88.0312V14.1992H91.8594V17.8711C91.8854 17.3633 92.0026 16.888 92.2109 16.4453C92.4193 15.9896 92.6927 15.599 93.0312 15.2734C93.3828 14.9349 93.7865 14.6745 94.2422 14.4922C94.6979 14.2969 95.1862 14.1992 95.707 14.1992H102.582C103.116 14.1992 103.617 14.3034 104.086 14.5117C104.555 14.707 104.958 14.9805 105.297 15.332C105.648 15.6706 105.922 16.0742 106.117 16.543C106.326 17.0117 106.43 17.513 106.43 18.0469V35ZM111.625 14.1992H116.703V7.79297H120.551V14.1992H127.387V18.0469H120.551V31.1523H127.387V35H120.551C120.03 35 119.535 34.9023 119.066 34.707C118.598 34.4987 118.188 34.2253 117.836 33.8867C117.484 33.5352 117.204 33.125 116.996 32.6562C116.801 32.1875 116.703 31.6862 116.703 31.1523V18.0469H111.625V14.1992ZM151.41 26.5625H137.641V31.1523H151.41V35H137.641C137.12 35 136.625 34.9023 136.156 34.707C135.688 34.4987 135.277 34.2253 134.926 33.8867C134.587 33.5352 134.314 33.125 134.105 32.6562C133.91 32.1875 133.812 31.6862 133.812 31.1523V18.0469C133.812 17.513 133.91 17.0117 134.105 16.543C134.314 16.0742 134.587 15.6706 134.926 15.332C135.277 14.9805 135.688 14.707 136.156 14.5117C136.625 14.3034 137.12 14.1992 137.641 14.1992H147.562C148.096 14.1992 148.598 14.3034 149.066 14.5117C149.535 14.707 149.939 14.9805 150.277 15.332C150.629 15.6706 150.902 16.0742 151.098 16.543C151.306 17.0117 151.41 17.513 151.41 18.0469V26.5625ZM137.641 18.0469V22.7148H147.562V18.0469H137.641ZM161.664 18.0469V35H157.836V14.1992H161.664V17.8711C161.69 17.3633 161.807 16.888 162.016 16.4453C162.224 15.9896 162.497 15.599 162.836 15.2734C163.188 14.9349 163.591 14.6745 164.047 14.4922C164.503 14.2969 164.991 14.1992 165.512 14.1992H169.594C170.128 14.1992 170.622 14.3034 171.078 14.5117C171.547 14.707 171.957 14.9805 172.309 15.332C172.66 15.6706 172.934 16.0742 173.129 16.543C173.337 17.0117 173.441 17.513 173.441 18.0469V21.5625H169.594V18.0469H161.664ZM191.02 6.99219L201.82 35H197.816L195.336 28.5547H182.699L180.219 35H176.215L187.016 6.99219H191.02ZM184.223 24.5508H193.793L189.027 12.207L184.223 24.5508ZM224.633 31.1523C224.633 31.6862 224.529 32.1875 224.32 32.6562C224.125 33.125 223.852 33.5352 223.5 33.8867C223.161 34.2253 222.758 34.4987 222.289 34.707C221.82 34.9023 221.319 35 220.785 35H210.062V43.3984H206.234V14.1992H210.062V17.7148C210.102 17.2201 210.232 16.7643 210.453 16.3477C210.674 15.918 210.954 15.5469 211.293 15.2344C211.632 14.9089 212.022 14.6549 212.465 14.4727C212.921 14.2904 213.402 14.1992 213.91 14.1992H220.785C221.319 14.1992 221.82 14.3034 222.289 14.5117C222.758 14.707 223.161 14.9805 223.5 15.332C223.852 15.6706 224.125 16.0742 224.32 16.543C224.529 17.0117 224.633 17.513 224.633 18.0469V31.1523ZM220.785 31.1523V18.0469H210.062V31.1523H220.785ZM249.438 31.1523C249.438 31.6862 249.333 32.1875 249.125 32.6562C248.93 33.125 248.656 33.5352 248.305 33.8867C247.966 34.2253 247.562 34.4987 247.094 34.707C246.625 34.9023 246.124 35 245.59 35H234.867V43.3984H231.039V14.1992H234.867V17.7148C234.906 17.2201 235.036 16.7643 235.258 16.3477C235.479 15.918 235.759 15.5469 236.098 15.2344C236.436 14.9089 236.827 14.6549 237.27 14.4727C237.725 14.2904 238.207 14.1992 238.715 14.1992H245.59C246.124 14.1992 246.625 14.3034 247.094 14.5117C247.562 14.707 247.966 14.9805 248.305 15.332C248.656 15.6706 248.93 16.0742 249.125 16.543C249.333 17.0117 249.438 17.513 249.438 18.0469V31.1523ZM245.59 31.1523V18.0469H234.867V31.1523H245.59Z" fill="#4639CD"/>
<defs>
<filter id="filter0_bii_412_47" x="-19.6667" y="-19.6667" width="299.333" height="88.3333" filterUnits="userSpaceOnUse" color-interpolation-filters="sRGB">
<feFlood flood-opacity="0" result="BackgroundImageFix"/>
<feGaussianBlur in="BackgroundImage" stdDeviation="9.83333"/>
<feComposite in2="SourceAlpha" operator="in" result="effect1_backgroundBlur_412_47"/>
<feBlend mode="normal" in="SourceGraphic" in2="effect1_backgroundBlur_412_47" result="shape"/>
<feColorMatrix in="SourceAlpha" type="matrix" values="0 0 0 0 0 0 0 0 0 0 0 0 0 0 0 0 0 0 127 0" result="hardAlpha"/>
<feOffset dx="-9.83333" dy="9.83333"/>
<feGaussianBlur stdDeviation="4.91667"/>
<feComposite in2="hardAlpha" operator="arithmetic" k2="-1" k3="1"/>
<feColorMatrix type="matrix" values="0 0 0 0 1 0 0 0 0 1 0 0 0 0 1 0 0 0 0.1 0"/>
<feBlend mode="normal" in2="shape" result="effect2_innerShadow_412_47"/>
<feColorMatrix in="SourceAlpha" type="matrix" values="0 0 0 0 0 0 0 0 0 0 0 0 0 0 0 0 0 0 127 0" result="hardAlpha"/>
<feOffset dx="9.83333" dy="-9.83333"/>
<feGaussianBlur stdDeviation="4.91667"/>
<feComposite in2="hardAlpha" operator="arithmetic" k2="-1" k3="1"/>
<feColorMatrix type="matrix" values="0 0 0 0 0.584157 0 0 0 0 0.584157 0 0 0 0 0.584157 0 0 0 0.1 0"/>
<feBlend mode="normal" in2="effect2_innerShadow_412_47" result="effect3_innerShadow_412_47"/>
</filter>
</defs>
</svg>
